<svg width="600" height="200" viewBox="0 0 600 200" fill="none" xmlns="http://www.w3.org/2000/svg">
<rect width="600" height="200" rx="32" fill="white"/>
<path fill-rule="evenodd" clip-rule="evenodd" d="M231.428 71.4286H237.143C237.932 71.4286 238.571 72.0682 238.571 72.8571V127.143C238.571 127.932 237.932 128.571 237.143 128.571H225.714H214.286C213.497 128.571 212.857 127.932 212.857 127.143V121.429C212.857 118.273 215.415 115.714 218.571 115.714H225.714L225.714 77.1428C225.714 73.9869 228.273 71.4286 231.428 71.4286Z" fill="black"/>
<path fill-rule="evenodd" clip-rule="evenodd" d="M243.571 107.143C243.571 95.3089 253.166 85.7143 265 85.7143C276.834 85.7143 286.428 95.3089 286.428 107.143C286.428 118.977 276.834 128.571 265 128.571C253.166 128.571 243.571 118.977 243.571 107.143ZM256.428 107.143C256.428 102.409 260.266 98.5714 265 98.5714C269.733 98.5714 273.571 102.409 273.571 107.143C273.571 111.876 269.733 115.714 265 115.714C260.266 115.714 256.428 111.876 256.428 107.143Z" fill="black"/>
<path fill-rule="evenodd" clip-rule="evenodd" d="M297.143 71.4286H302.857C303.646 71.4286 304.286 72.0682 304.286 72.8571V87.4976C306.911 86.3506 309.81 85.7143 312.857 85.7143C324.691 85.7143 334.286 95.3089 334.286 107.143C334.286 118.977 324.691 128.571 312.857 128.571C309.81 128.571 306.911 127.935 304.286 126.788V127.143C304.286 127.932 303.646 128.571 302.857 128.571H297.143C293.987 128.571 291.428 126.013 291.428 122.857V107.158C291.428 107.153 291.428 107.148 291.428 107.143C291.428 107.138 291.428 107.132 291.428 107.127V77.1428C291.428 73.9869 293.987 71.4286 297.143 71.4286ZM304.286 107.153C304.291 111.882 308.127 115.714 312.857 115.714C317.591 115.714 321.428 111.876 321.428 107.143C321.428 102.409 317.591 98.5714 312.857 98.5714C308.127 98.5714 304.291 102.404 304.286 107.133V107.153Z" fill="black"/>
<path fill-rule="evenodd" clip-rule="evenodd" d="M345 85.7143H352.143H352.143H363.571C364.36 85.7143 365 86.3539 365 87.1428V92.8571C365 96.013 362.442 98.5714 359.286 98.5714H352.143V127.143C352.143 127.932 351.503 128.571 350.714 128.571H345C341.844 128.571 339.286 126.013 339.286 122.857V91.4285C339.286 88.2726 341.844 85.7143 345 85.7143Z" fill="black"/>
<path fill-rule="evenodd" clip-rule="evenodd" d="M375.714 71.4286H381.429C382.218 71.4286 382.857 72.0682 382.857 72.8571V81.4286C382.857 82.2175 382.218 82.8571 381.429 82.8571H375.714C372.558 82.8571 370 80.2988 370 77.1428C370 73.9869 372.558 71.4286 375.714 71.4286ZM375.714 85.7143H381.429C382.217 85.7143 382.857 86.3539 382.857 87.1428V127.143C382.857 127.932 382.217 128.571 381.429 128.571H375.714C372.558 128.571 370 126.013 370 122.857V91.4286C370 88.2726 372.558 85.7143 375.714 85.7143Z" fill="black"/>
<path fill-rule="evenodd" clip-rule="evenodd" d="M447.143 71.4286H441.429C438.273 71.4286 435.715 73.9869 435.715 77.1428V122.857C435.715 126.013 438.273 128.571 441.429 128.571H447.143C447.932 128.571 448.572 127.932 448.572 127.143V72.8571C448.572 72.0682 447.932 71.4286 447.143 71.4286ZM456.429 85.7143H448.572V98.5714H456.429L456.429 122.857C456.429 126.013 458.987 128.571 462.143 128.571H467.858C468.647 128.571 469.286 127.932 469.286 127.143V91.4286C469.286 88.2726 466.728 85.7143 463.572 85.7143H456.429Z" fill="black"/>
<path fill-rule="evenodd" clip-rule="evenodd" d="M409.286 85.7143C397.452 85.7143 387.857 95.3089 387.857 107.143C387.857 118.977 397.452 128.571 409.286 128.571C409.405 128.571 409.524 128.57 409.643 128.568V128.571H415C416.578 128.571 417.857 129.851 417.857 131.429C417.857 133.007 416.578 134.286 415 134.286H404.585C401.066 134.286 398.214 137.138 398.214 140.656V146.154C398.214 146.7 398.657 147.143 399.203 147.143H415C423.679 147.143 430.714 140.107 430.714 131.429C430.714 127.111 428.973 123.2 426.154 120.359C429.011 116.718 430.714 112.129 430.714 107.143L430.714 87.1428C430.714 86.3539 430.075 85.7143 429.286 85.7143H419.286C418.497 85.7143 417.857 86.3539 417.857 87.1428V87.4976C415.232 86.3506 412.333 85.7143 409.286 85.7143ZM409.286 98.5714C404.552 98.5714 400.714 102.409 400.714 107.143C400.714 111.876 404.552 115.714 409.286 115.714C414.019 115.714 417.857 111.876 417.857 107.143C417.857 102.409 414.019 98.5714 409.286 98.5714Z" fill="black"/>
<path fill-rule="evenodd" clip-rule="evenodd" d="M485.714 71.4286H480C476.844 71.4286 474.286 73.9869 474.286 77.1428V122.857C474.286 126.013 476.844 128.571 480 128.571H487.143H487.143H494.286C497.442 128.571 500 126.013 500 122.857V117.143C500 116.354 499.36 115.714 498.571 115.714H487.143V98.5714H494.286C497.442 98.5714 500 96.013 500 92.8571V87.1428C500 86.3539 499.36 85.7143 498.571 85.7143H487.143V72.8571C487.143 72.0682 486.503 71.4286 485.714 71.4286Z" fill="black"/>
<path d="M100 100C100 72.3858 122.386 50 150 50V50C177.614 50 200 72.3858 200 100V100C200 127.614 177.614 150 150 150V150C122.386 150 100 127.614 100 100V100Z" fill="#00F0A0"/>
<path d="M159.594 148.928L180.023 101.242L187.923 125.847L193.358 145.693C193.783 147.244 192.509 148.735 190.91 148.557L187.353 148.162C178.109 147.135 168.767 147.393 159.594 148.928Z" fill="#00F0A0"/>
<path d="M139.323 132.031C124.572 136.251 111.755 134.78 108.882 134.365C108.685 134.336 108.642 134.083 108.819 133.991C110.959 132.873 118.931 128.68 122.5 126.406C126.643 123.767 134.463 117.185 134.463 117.185L163.45 117.744C164.691 117.768 165.198 119.238 164.192 119.965C159.942 123.034 151.078 128.668 139.323 132.031Z" fill="#00F0A0" stroke="black" stroke-width="2.5" stroke-linecap="round" stroke-linejoin="round"/>
<path fill-rule="evenodd" clip-rule="evenodd" d="M135.949 105.183C126.939 115.568 115 119.062 115 119.062C115 119.062 125.544 125.663 138.188 126.667C150.576 127.65 162.554 123.061 170.169 114.811L159.271 116.771L135.949 105.183Z" fill="#00F0A0"/>
<path fill-rule="evenodd" clip-rule="evenodd" d="M135.949 105.183L159.271 116.771L170.169 114.811C175.467 109.071 178.654 101.558 178.397 92.9166L178.464 91.5501C178.619 88.3968 180.196 85.484 182.751 83.6301L184.022 82.7083C184.022 82.7083 176.302 72.9415 163.125 75.5208C152.051 77.6885 148.003 85.0779 142.795 94.5843C141.806 96.3897 140.775 98.2714 139.647 100.208C138.506 102.019 137.259 103.674 135.949 105.183Z" fill="white"/>
<path d="M115 119.062C115 119.062 130.661 114.479 139.647 100.208C146.719 88.0729 149.948 78.1002 163.125 75.5208C176.302 72.9415 184.022 82.7083 184.022 82.7083L182.751 83.6301C180.196 85.484 178.619 88.3968 178.464 91.5501L178.397 92.9166C179.024 113.979 159.194 128.334 138.188 126.667C125.544 125.663 115 119.062 115 119.062Z" stroke="black" stroke-width="2.5" stroke-linejoin="round"/>
<path d="M111.894 92.8773C107.698 89.7873 110.104 84.8958 112.311 82.9166L153.021 92.5C147.708 99.375 147.913 104.896 152.33 113.44C142.51 108.603 115.625 95.625 111.894 92.8773Z" fill="white"/>
<path d="M156.823 115.625L156.146 115.312L155.417 114.924L112.712 93.6262C106.569 90.0462 110.516 82.19 113.444 82.8587L154.063 92.6042" stroke="black" stroke-width="2.5" stroke-linecap="round" stroke-linejoin="round"/>
<path d="M154.075 92.6042C151.248 94.744 149.268 97.9931 148.837 101.794C148.001 109.16 153.294 115.81 160.66 116.646C165.797 117.229 170.584 114.832 173.296 110.83" stroke="black" stroke-width="2.5" stroke-linecap="round"/>
<path d="M180.781 83.6458C181.302 83.1771 182.135 82.5 181.302 81.7187L182.292 82.4479L182.396 83.4895L180.781 83.6458Z" fill="black"/>
<circle cx="172.552" cy="84.0104" r="2.23958" fill="black"/>
<rect x="0.5" y="0.5" width="599" height="199" rx="31.5" stroke="black" stroke-opacity="0.04"/>
</svg>
